<svg xmlns="http://www.w3.org/2000/svg" viewBox="0 0 1500 1000">
  <rect width="1500" height="1000" fill="#efefeb"/>
  <g stroke="#161616" stroke-width="1.6">
    <g stroke-opacity="0.3">
      <line x1="150" y1="120" x2="150" y2="880"/><line x1="270" y1="120" x2="270" y2="880"/>
      <line x1="390" y1="120" x2="390" y2="880"/><line x1="510" y1="120" x2="510" y2="880"/>
      <line x1="630" y1="120" x2="630" y2="880"/><line x1="750" y1="120" x2="750" y2="880"/>
      <line x1="870" y1="120" x2="870" y2="880"/><line x1="990" y1="120" x2="990" y2="880"/>
      <line x1="1110" y1="120" x2="1110" y2="880"/><line x1="1230" y1="120" x2="1230" y2="880"/>
      <line x1="1350" y1="120" x2="1350" y2="880"/>
    </g>
    <g stroke-opacity="0.18">
      <line x1="150" y1="120" x2="1350" y2="120"/><line x1="150" y1="310" x2="1350" y2="310"/>
      <line x1="150" y1="500" x2="1350" y2="500"/><line x1="150" y1="690" x2="1350" y2="690"/>
      <line x1="150" y1="880" x2="1350" y2="880"/>
    </g>
  </g>
</svg>
