<svg xmlns="http://www.w3.org/2000/svg" viewBox="0 0 762.8 762.8">
  <style>
    path { fill: #101010; }
    @media (prefers-color-scheme: dark) {
      path { fill: #ffffff; }
    }
  </style>
  <!-- VO / NO — the four wordmark glyphs stacked in a 2x2 grid -->
  <g transform="translate(-8.63 -122.8)">
    <path d="M370.03 130.80L297.43 130.80L297.43 307.20C297.43 364.80 250.63 411 193.63 411C136.03 411 89.83 364.80 89.83 307.20L89.83 130.80L16.63 130.80L16.63 307.20C16.63 366 45.43 418.20 89.83 450.60C118.63 471.60 154.63 484.20 193.63 484.20C232.03 484.20 268.03 471.60 297.43 450.60C341.23 418.20 370.03 366 370.03 307.20"/>
  </g>
  <g transform="translate(7.37 -122.8)">
    <path d="M571.03 130.80C473.23 130.80 394.03 210 394.03 307.20C394.03 405 473.23 484.20 571.03 484.20C668.23 484.20 747.43 405 747.43 307.20C747.43 210 668.23 130.80 571.03 130.80M571.03 411C513.43 411 467.23 364.80 467.23 307.20C467.23 250.20 513.43 203.40 571.03 203.40C628.03 203.40 674.83 250.20 674.83 307.20C674.83 364.80 628.03 411 571.03 411"/>
  </g>
  <g transform="translate(-763.43 270.6)">
    <path d="M1124.83 484.20L1124.83 307.20C1124.83 248.40 1096.03 196.20 1052.23 164.40C1022.83 142.80 986.83 130.80 948.43 130.80C909.43 130.80 873.43 142.80 844.63 164.40C800.23 196.20 771.43 248.40 771.43 307.20L771.43 484.20L844.63 484.20L844.63 307.20C844.63 250.20 890.83 203.40 948.43 203.40C1005.43 203.40 1052.23 250.20 1052.23 307.20L1052.23 484.20"/>
  </g>
  <g transform="translate(-748.03 270.6)">
    <path d="M1326.43 130.80C1228.63 130.80 1149.43 210 1149.43 307.20C1149.43 405 1228.63 484.20 1326.43 484.20C1423.63 484.20 1502.83 405 1502.83 307.20C1502.83 210 1423.63 130.80 1326.43 130.80M1326.43 411C1268.83 411 1222.63 364.80 1222.63 307.20C1222.63 250.20 1268.83 203.40 1326.43 203.40C1383.43 203.40 1430.23 250.20 1430.23 307.20C1430.23 364.80 1383.43 411 1326.43 411"/>
  </g>
</svg>
